<svg width="203" height="42" viewBox="0 0 203 42" fill="none" xmlns="http://www.w3.org/2000/svg">
<mask id="path-1-outside-1_31_189" maskUnits="userSpaceOnUse" x="0.5" y="0" width="202" height="42" fill="black">
<rect fill="white" x="0.5" width="202" height="42"/>
<path d="M30.3886 37.7744C27.3861 39.7832 24.4485 40.8558 21.576 40.9924C18.6842 41.0983 16.1101 40.0991 13.8537 37.9947C12.9297 37.1324 11.9502 35.9807 10.915 34.5397C9.87983 33.0987 8.62862 31.2145 7.16138 28.8869C4.28482 24.3236 2.47273 20.3762 1.72513 17.0447C0.987948 13.6627 2.06118 11.0071 4.94483 9.07786C6.72853 7.88454 8.53118 7.59291 10.3528 8.20298C12.2041 8.79317 13.7283 10.0377 14.9252 11.9365C16.1994 13.9578 17.397 16.2263 18.5179 18.742C19.6388 21.2577 20.9348 24.353 22.406 28.0277C23.863 26.1821 25.6915 24.5234 27.8914 23.0516C30.1805 21.5202 32.3534 20.6761 34.4101 20.5193C36.4965 20.3426 38.1479 21.219 39.3641 23.1484C40.5418 25.0166 40.816 26.7925 40.1867 28.4762C39.5575 30.1599 38.4631 31.6758 36.9038 33.0238C35.3251 34.3413 33.1534 35.9248 30.3886 37.7744Z"/>
<path d="M58.0545 40.8768C55.4314 40.8768 53.1096 40.3473 51.0891 39.2883C49.0687 38.2293 47.4913 36.7504 46.357 34.8515C45.2581 32.916 44.7087 30.7433 44.7087 28.3331C44.7087 25.9595 45.2581 23.7685 46.357 21.76C47.4913 19.7516 49.0509 18.1448 51.036 16.9398C53.021 15.7347 55.2719 15.1322 57.7886 15.1322C60.0572 15.1322 62.06 15.6069 63.7969 16.5563C65.5338 17.5058 66.863 18.7656 67.7847 20.3359C68.7063 21.8696 69.1671 23.4763 69.1671 25.1561C69.1671 27.8949 68.1569 29.9034 66.1364 31.1815C64.1514 32.4231 61.7764 33.0439 59.0115 33.0439C57.1683 33.0439 55.6086 32.8065 54.3325 32.3318C55.396 34.1211 57.1506 35.0158 59.5964 35.0158C60.5889 35.0158 61.6523 34.888 62.7866 34.6324C63.212 34.5228 63.6196 34.468 64.0096 34.468C64.7894 34.468 65.4097 34.6689 65.8705 35.0706C66.3668 35.4722 66.6149 36.02 66.6149 36.7138C66.6149 37.8459 65.9414 38.8318 64.5944 39.6717C63.2475 40.4751 61.0675 40.8768 58.0545 40.8768ZM54.4921 25.6491C54.8111 26.1604 55.2364 26.5438 55.7682 26.7994C56.3353 27.0185 56.9556 27.1281 57.6291 27.1281C58.4089 27.1281 59.0824 26.9455 59.6496 26.5803C60.2522 26.2151 60.5535 25.7404 60.5535 25.1561C60.5535 24.4988 60.2876 23.9328 59.7559 23.4581C59.2597 22.9834 58.533 22.746 57.5759 22.746C56.6189 22.746 55.8568 23.0564 55.2896 23.6772C54.7579 24.2615 54.4921 24.9188 54.4921 25.6491Z"/>
<path d="M88.6931 40.8768C87.0625 40.8768 85.946 40.3108 85.3434 39.1787C84.7408 38.0467 84.4395 36.3121 84.4395 33.975C84.4395 32.2587 84.4217 31.0354 84.3863 30.3051C84.3509 29.5382 84.2091 28.8992 83.9609 28.3879C83.7483 27.8767 83.3583 27.621 82.7912 27.621C82.1177 27.621 81.6214 27.8584 81.3024 28.3331C80.9834 28.7713 80.7884 29.3556 80.7175 30.086C80.6821 30.7798 80.6644 31.8388 80.6644 33.263C80.6644 35.0158 80.5935 36.4034 80.4517 37.4259C80.3099 38.4119 79.9377 39.2335 79.3351 39.8908C78.7325 40.5116 77.7932 40.822 76.5171 40.822C72.6888 40.822 70.7747 35.8192 70.7747 25.8134C70.7747 22.4173 71.0583 19.7881 71.6254 17.9257C72.228 16.0268 73.3446 14.84 74.9751 14.3653C75.5777 14.1827 76.1272 14.0914 76.6234 14.0914C77.3678 14.0914 78.0413 14.2557 78.6439 14.5844C79.2465 14.9131 79.6719 15.3695 79.92 15.9538C80.4162 15.6617 80.9125 15.4426 81.4088 15.2965C81.905 15.1504 82.614 15.0774 83.5356 15.0774C84.6699 15.0774 85.7333 15.3695 86.7258 15.9538C87.7538 16.5016 88.4804 17.2867 88.9058 18.3092C89.8274 17.2136 90.749 16.4103 91.6706 15.899C92.6277 15.3513 93.8506 15.0774 95.3394 15.0774C97.5371 15.0774 99.4513 15.753 101.082 17.1041C102.748 18.4187 104.024 20.2446 104.91 22.5817C105.832 24.8823 106.293 27.4385 106.293 30.2503C106.293 33.3908 105.885 35.947 105.07 37.9189C104.254 39.8908 102.836 40.8768 100.816 40.8768C99.469 40.8768 98.4942 40.5299 97.8916 39.8361C97.3244 39.1422 96.97 38.2841 96.8282 37.2616C96.7218 36.2026 96.6687 34.6689 96.6687 32.6604C96.6687 30.9076 96.5446 29.6295 96.2965 28.8261C96.0484 28.0227 95.4635 27.621 94.5419 27.621C93.8684 27.621 93.443 28.0045 93.2658 28.7713C93.0885 29.5017 92.9999 30.725 92.9999 32.4413C92.9645 32.77 92.9467 33.2812 92.9467 33.975C92.8758 36.3121 92.5391 38.0467 91.9365 39.1787C91.3339 40.3108 90.2528 40.8768 88.6931 40.8768Z"/>
<path d="M122.589 40.8768C116.138 40.8768 111.973 38.8501 110.094 34.7967C108.251 30.7068 107.329 26.562 107.329 22.3626C107.329 19.2586 107.595 16.1912 108.127 13.1602C108.694 10.1293 109.598 7.59136 110.839 5.54639C112.079 3.50143 113.692 2.47895 115.677 2.47895C116.918 2.47895 117.981 2.88064 118.867 3.68402C119.754 4.4874 120.197 5.65595 120.197 7.18967C120.197 7.95653 120.126 8.72339 119.984 9.49025C119.842 10.2571 119.629 11.2066 119.346 12.3386C119.275 12.5577 119.133 13.1055 118.92 13.9819C118.743 14.8583 118.619 15.6799 118.548 16.4468C120.108 15.5704 121.88 15.1322 123.865 15.1322C125.85 15.1322 127.694 15.5886 129.395 16.5016C131.132 17.4145 132.532 18.8204 133.596 20.7193C134.694 22.5817 135.244 24.864 135.244 27.5663C135.244 29.8669 134.73 32.0396 133.702 34.0846C132.674 36.093 131.185 37.7363 129.236 39.0144C127.321 40.256 125.106 40.8768 122.589 40.8768ZM122.27 32.2222C123.227 32.2222 124.06 31.857 124.769 31.1267C125.514 30.3598 125.886 29.4652 125.886 28.4427C125.886 27.4202 125.514 26.5255 124.769 25.7587C124.06 24.9918 123.227 24.6084 122.27 24.6084C121.313 24.6084 120.48 24.9918 119.771 25.7587C119.062 26.5255 118.708 27.4202 118.708 28.4427C118.708 29.4652 119.062 30.3598 119.771 31.1267C120.48 31.857 121.313 32.2222 122.27 32.2222Z"/>
<path d="M143.083 40.8768C140.814 40.8768 139.29 39.5074 138.51 36.7686C137.766 34.0298 137.393 30.2503 137.393 25.43C137.393 23.239 137.482 21.4131 137.659 19.9524C137.872 18.4552 138.351 17.1954 139.095 16.1729C139.875 15.1139 141.062 14.5844 142.657 14.5844C143.65 14.5844 144.518 14.8218 145.263 15.2965C146.043 15.7712 146.539 16.4468 146.751 17.3232C147.531 16.5929 148.542 16.0451 149.782 15.6799C151.023 15.3147 152.352 15.1322 153.77 15.1322C154.904 15.1322 156.056 15.4243 157.226 16.0086C158.431 16.5928 159.424 17.3962 160.204 18.4187C161.019 19.4047 161.427 20.4819 161.427 21.6505C161.427 22.819 161.019 23.8598 160.204 24.7727C159.424 25.6491 158.378 26.0873 157.067 26.0873C156.641 26.0873 156.234 26.0325 155.844 25.923C155.489 25.8134 155.17 25.7039 154.887 25.5943C154.178 25.3022 153.61 25.1561 153.185 25.1561C151.803 25.1561 150.58 25.7222 149.516 26.8542C148.488 27.9497 147.974 29.3739 147.974 31.1267C147.974 33.0621 147.904 34.6689 147.762 35.947C147.62 37.2251 147.195 38.3754 146.486 39.3978C145.777 40.3838 144.642 40.8768 143.083 40.8768Z"/>
<path d="M172.044 40.8768C169.279 40.8768 167.01 40.2377 165.238 38.9596C163.465 37.645 162.579 35.7644 162.579 33.3177C162.579 31.1997 163.483 29.5199 165.291 28.2784C167.099 27.0368 169.35 26.416 172.044 26.416C173.036 26.416 173.958 26.5073 174.808 26.6899C175.695 26.8359 176.297 27.0185 176.616 27.2376C176.616 26.3247 176.244 25.5761 175.5 24.9918C174.755 24.371 173.621 24.0606 172.097 24.0606C171.423 24.0606 170.874 24.1154 170.448 24.2249C170.023 24.3345 169.562 24.4988 169.066 24.7179C168.57 24.937 168.109 25.1014 167.684 25.2109C167.294 25.3205 166.762 25.3752 166.088 25.3752C164.954 25.3752 164.068 25.0831 163.43 24.4988C162.792 23.878 162.473 22.9468 162.473 21.7053C162.473 20.2811 162.969 19.076 163.962 18.0901C164.99 17.1041 166.266 16.3737 167.79 15.899C169.314 15.3878 170.838 15.1322 172.363 15.1322C175.376 15.1322 177.892 15.7164 179.913 16.885C181.969 18.017 183.475 19.5325 184.432 21.4314C185.425 23.3303 185.921 25.43 185.921 27.7306C185.921 28.9722 185.815 30.1225 185.602 31.1815C185.425 32.2405 185.177 33.0621 184.858 33.6464C185.354 34.0846 185.726 34.5958 185.974 35.1801C186.258 35.7644 186.4 36.3669 186.4 36.9877C186.4 38.0467 186.045 38.9596 185.336 39.7265C184.663 40.4934 183.759 40.8768 182.624 40.8768C181.774 40.8768 181.083 40.749 180.551 40.4934C180.019 40.2377 179.452 39.8361 178.849 39.2883C177.963 39.8361 176.988 40.2377 175.925 40.4934C174.897 40.749 173.603 40.8768 172.044 40.8768ZM173.107 35.3444C173.851 35.3444 174.436 35.1801 174.862 34.8515C175.322 34.5228 175.553 34.1211 175.553 33.6464C175.553 33.1717 175.322 32.77 174.862 32.4413C174.436 32.1127 173.851 31.9483 173.107 31.9483C172.363 31.9483 171.76 32.1127 171.299 32.4413C170.874 32.77 170.661 33.1717 170.661 33.6464C170.661 34.1211 170.874 34.5228 171.299 34.8515C171.76 35.1801 172.363 35.3444 173.107 35.3444Z"/>
<path d="M195.279 14.3105C193.542 14.3105 192.071 13.6715 190.866 12.3934C189.661 11.0787 189.058 9.49025 189.058 7.62787C189.058 5.80201 189.661 4.25003 190.866 2.97193C192.071 1.65731 193.542 1 195.279 1C196.981 1 198.434 1.65731 199.639 2.97193C200.88 4.25003 201.5 5.80201 201.5 7.62787C201.5 9.49025 200.88 11.0787 199.639 12.3934C198.434 13.6715 196.981 14.3105 195.279 14.3105ZM195.279 40.8768C193.826 40.8768 192.745 40.4568 192.036 39.617C191.362 38.7405 190.901 37.4442 190.653 35.7279C190.441 33.975 190.334 31.4919 190.334 28.2784C190.334 25.5761 190.458 23.4398 190.706 21.8696C190.99 20.2993 191.486 19.1308 192.195 18.3639C192.904 17.5971 193.932 17.2136 195.279 17.2136C196.732 17.2136 197.796 17.6518 198.469 18.5283C199.178 19.3682 199.639 20.6645 199.852 22.4173C200.1 24.1337 200.224 26.5986 200.224 29.8121C200.224 32.5144 200.082 34.6506 199.799 36.2209C199.55 37.7911 199.072 38.9596 198.363 39.7265C197.654 40.4934 196.626 40.8768 195.279 40.8768Z"/>
</mask>
<path d="M30.3886 37.7744C27.3861 39.7832 24.4485 40.8558 21.576 40.9924C18.6842 41.0983 16.1101 40.0991 13.8537 37.9947C12.9297 37.1324 11.9502 35.9807 10.915 34.5397C9.87983 33.0987 8.62862 31.2145 7.16138 28.8869C4.28482 24.3236 2.47273 20.3762 1.72513 17.0447C0.987948 13.6627 2.06118 11.0071 4.94483 9.07786C6.72853 7.88454 8.53118 7.59291 10.3528 8.20298C12.2041 8.79317 13.7283 10.0377 14.9252 11.9365C16.1994 13.9578 17.397 16.2263 18.5179 18.742C19.6388 21.2577 20.9348 24.353 22.406 28.0277C23.863 26.1821 25.6915 24.5234 27.8914 23.0516C30.1805 21.5202 32.3534 20.6761 34.4101 20.5193C36.4965 20.3426 38.1479 21.219 39.3641 23.1484C40.5418 25.0166 40.816 26.7925 40.1867 28.4762C39.5575 30.1599 38.4631 31.6758 36.9038 33.0238C35.3251 34.3413 33.1534 35.9248 30.3886 37.7744Z" fill="white"/>
<path d="M58.0545 40.8768C55.4314 40.8768 53.1096 40.3473 51.0891 39.2883C49.0687 38.2293 47.4913 36.7504 46.357 34.8515C45.2581 32.916 44.7087 30.7433 44.7087 28.3331C44.7087 25.9595 45.2581 23.7685 46.357 21.76C47.4913 19.7516 49.0509 18.1448 51.036 16.9398C53.021 15.7347 55.2719 15.1322 57.7886 15.1322C60.0572 15.1322 62.06 15.6069 63.7969 16.5563C65.5338 17.5058 66.863 18.7656 67.7847 20.3359C68.7063 21.8696 69.1671 23.4763 69.1671 25.1561C69.1671 27.8949 68.1569 29.9034 66.1364 31.1815C64.1514 32.4231 61.7764 33.0439 59.0115 33.0439C57.1683 33.0439 55.6086 32.8065 54.3325 32.3318C55.396 34.1211 57.1506 35.0158 59.5964 35.0158C60.5889 35.0158 61.6523 34.888 62.7866 34.6324C63.212 34.5228 63.6196 34.468 64.0096 34.468C64.7894 34.468 65.4097 34.6689 65.8705 35.0706C66.3668 35.4722 66.6149 36.02 66.6149 36.7138C66.6149 37.8459 65.9414 38.8318 64.5944 39.6717C63.2475 40.4751 61.0675 40.8768 58.0545 40.8768ZM54.4921 25.6491C54.8111 26.1604 55.2364 26.5438 55.7682 26.7994C56.3353 27.0185 56.9556 27.1281 57.6291 27.1281C58.4089 27.1281 59.0824 26.9455 59.6496 26.5803C60.2522 26.2151 60.5535 25.7404 60.5535 25.1561C60.5535 24.4988 60.2876 23.9328 59.7559 23.4581C59.2597 22.9834 58.533 22.746 57.5759 22.746C56.6189 22.746 55.8568 23.0564 55.2896 23.6772C54.7579 24.2615 54.4921 24.9188 54.4921 25.6491Z" fill="white"/>
<path d="M88.6931 40.8768C87.0625 40.8768 85.946 40.3108 85.3434 39.1787C84.7408 38.0467 84.4395 36.3121 84.4395 33.975C84.4395 32.2587 84.4217 31.0354 84.3863 30.3051C84.3509 29.5382 84.2091 28.8992 83.9609 28.3879C83.7483 27.8767 83.3583 27.621 82.7912 27.621C82.1177 27.621 81.6214 27.8584 81.3024 28.3331C80.9834 28.7713 80.7884 29.3556 80.7175 30.086C80.6821 30.7798 80.6644 31.8388 80.6644 33.263C80.6644 35.0158 80.5935 36.4034 80.4517 37.4259C80.3099 38.4119 79.9377 39.2335 79.3351 39.8908C78.7325 40.5116 77.7932 40.822 76.5171 40.822C72.6888 40.822 70.7747 35.8192 70.7747 25.8134C70.7747 22.4173 71.0583 19.7881 71.6254 17.9257C72.228 16.0268 73.3446 14.84 74.9751 14.3653C75.5777 14.1827 76.1272 14.0914 76.6234 14.0914C77.3678 14.0914 78.0413 14.2557 78.6439 14.5844C79.2465 14.9131 79.6719 15.3695 79.92 15.9538C80.4162 15.6617 80.9125 15.4426 81.4088 15.2965C81.905 15.1504 82.614 15.0774 83.5356 15.0774C84.6699 15.0774 85.7333 15.3695 86.7258 15.9538C87.7538 16.5016 88.4804 17.2867 88.9058 18.3092C89.8274 17.2136 90.749 16.4103 91.6706 15.899C92.6277 15.3513 93.8506 15.0774 95.3394 15.0774C97.5371 15.0774 99.4513 15.753 101.082 17.1041C102.748 18.4187 104.024 20.2446 104.91 22.5817C105.832 24.8823 106.293 27.4385 106.293 30.2503C106.293 33.3908 105.885 35.947 105.07 37.9189C104.254 39.8908 102.836 40.8768 100.816 40.8768C99.469 40.8768 98.4942 40.5299 97.8916 39.8361C97.3244 39.1422 96.97 38.2841 96.8282 37.2616C96.7218 36.2026 96.6687 34.6689 96.6687 32.6604C96.6687 30.9076 96.5446 29.6295 96.2965 28.8261C96.0484 28.0227 95.4635 27.621 94.5419 27.621C93.8684 27.621 93.443 28.0045 93.2658 28.7713C93.0885 29.5017 92.9999 30.725 92.9999 32.4413C92.9645 32.77 92.9467 33.2812 92.9467 33.975C92.8758 36.3121 92.5391 38.0467 91.9365 39.1787C91.3339 40.3108 90.2528 40.8768 88.6931 40.8768Z" fill="white"/>
<path d="M122.589 40.8768C116.138 40.8768 111.973 38.8501 110.094 34.7967C108.251 30.7068 107.329 26.562 107.329 22.3626C107.329 19.2586 107.595 16.1912 108.127 13.1602C108.694 10.1293 109.598 7.59136 110.839 5.54639C112.079 3.50143 113.692 2.47895 115.677 2.47895C116.918 2.47895 117.981 2.88064 118.867 3.68402C119.754 4.4874 120.197 5.65595 120.197 7.18967C120.197 7.95653 120.126 8.72339 119.984 9.49025C119.842 10.2571 119.629 11.2066 119.346 12.3386C119.275 12.5577 119.133 13.1055 118.92 13.9819C118.743 14.8583 118.619 15.6799 118.548 16.4468C120.108 15.5704 121.88 15.1322 123.865 15.1322C125.85 15.1322 127.694 15.5886 129.395 16.5016C131.132 17.4145 132.532 18.8204 133.596 20.7193C134.694 22.5817 135.244 24.864 135.244 27.5663C135.244 29.8669 134.73 32.0396 133.702 34.0846C132.674 36.093 131.185 37.7363 129.236 39.0144C127.321 40.256 125.106 40.8768 122.589 40.8768ZM122.27 32.2222C123.227 32.2222 124.06 31.857 124.769 31.1267C125.514 30.3598 125.886 29.4652 125.886 28.4427C125.886 27.4202 125.514 26.5255 124.769 25.7587C124.06 24.9918 123.227 24.6084 122.27 24.6084C121.313 24.6084 120.48 24.9918 119.771 25.7587C119.062 26.5255 118.708 27.4202 118.708 28.4427C118.708 29.4652 119.062 30.3598 119.771 31.1267C120.48 31.857 121.313 32.2222 122.27 32.2222Z" fill="white"/>
<path d="M143.083 40.8768C140.814 40.8768 139.29 39.5074 138.51 36.7686C137.766 34.0298 137.393 30.2503 137.393 25.43C137.393 23.239 137.482 21.4131 137.659 19.9524C137.872 18.4552 138.351 17.1954 139.095 16.1729C139.875 15.1139 141.062 14.5844 142.657 14.5844C143.65 14.5844 144.518 14.8218 145.263 15.2965C146.043 15.7712 146.539 16.4468 146.751 17.3232C147.531 16.5929 148.542 16.0451 149.782 15.6799C151.023 15.3147 152.352 15.1322 153.77 15.1322C154.904 15.1322 156.056 15.4243 157.226 16.0086C158.431 16.5928 159.424 17.3962 160.204 18.4187C161.019 19.4047 161.427 20.4819 161.427 21.6505C161.427 22.819 161.019 23.8598 160.204 24.7727C159.424 25.6491 158.378 26.0873 157.067 26.0873C156.641 26.0873 156.234 26.0325 155.844 25.923C155.489 25.8134 155.17 25.7039 154.887 25.5943C154.178 25.3022 153.61 25.1561 153.185 25.1561C151.803 25.1561 150.58 25.7222 149.516 26.8542C148.488 27.9497 147.974 29.3739 147.974 31.1267C147.974 33.0621 147.904 34.6689 147.762 35.947C147.62 37.2251 147.195 38.3754 146.486 39.3978C145.777 40.3838 144.642 40.8768 143.083 40.8768Z" fill="white"/>
<path d="M172.044 40.8768C169.279 40.8768 167.01 40.2377 165.238 38.9596C163.465 37.645 162.579 35.7644 162.579 33.3177C162.579 31.1997 163.483 29.5199 165.291 28.2784C167.099 27.0368 169.35 26.416 172.044 26.416C173.036 26.416 173.958 26.5073 174.808 26.6899C175.695 26.8359 176.297 27.0185 176.616 27.2376C176.616 26.3247 176.244 25.5761 175.5 24.9918C174.755 24.371 173.621 24.0606 172.097 24.0606C171.423 24.0606 170.874 24.1154 170.448 24.2249C170.023 24.3345 169.562 24.4988 169.066 24.7179C168.57 24.937 168.109 25.1014 167.684 25.2109C167.294 25.3205 166.762 25.3752 166.088 25.3752C164.954 25.3752 164.068 25.0831 163.43 24.4988C162.792 23.878 162.473 22.9468 162.473 21.7053C162.473 20.2811 162.969 19.076 163.962 18.0901C164.99 17.1041 166.266 16.3737 167.79 15.899C169.314 15.3878 170.838 15.1322 172.363 15.1322C175.376 15.1322 177.892 15.7164 179.913 16.885C181.969 18.017 183.475 19.5325 184.432 21.4314C185.425 23.3303 185.921 25.43 185.921 27.7306C185.921 28.9722 185.815 30.1225 185.602 31.1815C185.425 32.2405 185.177 33.0621 184.858 33.6464C185.354 34.0846 185.726 34.5958 185.974 35.1801C186.258 35.7644 186.4 36.3669 186.4 36.9877C186.4 38.0467 186.045 38.9596 185.336 39.7265C184.663 40.4934 183.759 40.8768 182.624 40.8768C181.774 40.8768 181.083 40.749 180.551 40.4934C180.019 40.2377 179.452 39.8361 178.849 39.2883C177.963 39.8361 176.988 40.2377 175.925 40.4934C174.897 40.749 173.603 40.8768 172.044 40.8768ZM173.107 35.3444C173.851 35.3444 174.436 35.1801 174.862 34.8515C175.322 34.5228 175.553 34.1211 175.553 33.6464C175.553 33.1717 175.322 32.77 174.862 32.4413C174.436 32.1127 173.851 31.9483 173.107 31.9483C172.363 31.9483 171.76 32.1127 171.299 32.4413C170.874 32.77 170.661 33.1717 170.661 33.6464C170.661 34.1211 170.874 34.5228 171.299 34.8515C171.76 35.1801 172.363 35.3444 173.107 35.3444Z" fill="white"/>
<path d="M195.279 14.3105C193.542 14.3105 192.071 13.6715 190.866 12.3934C189.661 11.0787 189.058 9.49025 189.058 7.62787C189.058 5.80201 189.661 4.25003 190.866 2.97193C192.071 1.65731 193.542 1 195.279 1C196.981 1 198.434 1.65731 199.639 2.97193C200.88 4.25003 201.5 5.80201 201.5 7.62787C201.5 9.49025 200.88 11.0787 199.639 12.3934C198.434 13.6715 196.981 14.3105 195.279 14.3105ZM195.279 40.8768C193.826 40.8768 192.745 40.4568 192.036 39.617C191.362 38.7405 190.901 37.4442 190.653 35.7279C190.441 33.975 190.334 31.4919 190.334 28.2784C190.334 25.5761 190.458 23.4398 190.706 21.8696C190.99 20.2993 191.486 19.1308 192.195 18.3639C192.904 17.5971 193.932 17.2136 195.279 17.2136C196.732 17.2136 197.796 17.6518 198.469 18.5283C199.178 19.3682 199.639 20.6645 199.852 22.4173C200.1 24.1337 200.224 26.5986 200.224 29.8121C200.224 32.5144 200.082 34.6506 199.799 36.2209C199.55 37.7911 199.072 38.9596 198.363 39.7265C197.654 40.4934 196.626 40.8768 195.279 40.8768Z" fill="white"/>
<path d="M30.3886 37.7744C27.3861 39.7832 24.4485 40.8558 21.576 40.9924C18.6842 41.0983 16.1101 40.0991 13.8537 37.9947C12.9297 37.1324 11.9502 35.9807 10.915 34.5397C9.87983 33.0987 8.62862 31.2145 7.16138 28.8869C4.28482 24.3236 2.47273 20.3762 1.72513 17.0447C0.987948 13.6627 2.06118 11.0071 4.94483 9.07786C6.72853 7.88454 8.53118 7.59291 10.3528 8.20298C12.2041 8.79317 13.7283 10.0377 14.9252 11.9365C16.1994 13.9578 17.397 16.2263 18.5179 18.742C19.6388 21.2577 20.9348 24.353 22.406 28.0277C23.863 26.1821 25.6915 24.5234 27.8914 23.0516C30.1805 21.5202 32.3534 20.6761 34.4101 20.5193C36.4965 20.3426 38.1479 21.219 39.3641 23.1484C40.5418 25.0166 40.816 26.7925 40.1867 28.4762C39.5575 30.1599 38.4631 31.6758 36.9038 33.0238C35.3251 34.3413 33.1534 35.9248 30.3886 37.7744Z" stroke="black" stroke-width="2" mask="url(#path-1-outside-1_31_189)"/>
<path d="M58.0545 40.8768C55.4314 40.8768 53.1096 40.3473 51.0891 39.2883C49.0687 38.2293 47.4913 36.7504 46.357 34.8515C45.2581 32.916 44.7087 30.7433 44.7087 28.3331C44.7087 25.9595 45.2581 23.7685 46.357 21.76C47.4913 19.7516 49.0509 18.1448 51.036 16.9398C53.021 15.7347 55.2719 15.1322 57.7886 15.1322C60.0572 15.1322 62.06 15.6069 63.7969 16.5563C65.5338 17.5058 66.863 18.7656 67.7847 20.3359C68.7063 21.8696 69.1671 23.4763 69.1671 25.1561C69.1671 27.8949 68.1569 29.9034 66.1364 31.1815C64.1514 32.4231 61.7764 33.0439 59.0115 33.0439C57.1683 33.0439 55.6086 32.8065 54.3325 32.3318C55.396 34.1211 57.1506 35.0158 59.5964 35.0158C60.5889 35.0158 61.6523 34.888 62.7866 34.6324C63.212 34.5228 63.6196 34.468 64.0096 34.468C64.7894 34.468 65.4097 34.6689 65.8705 35.0706C66.3668 35.4722 66.6149 36.02 66.6149 36.7138C66.6149 37.8459 65.9414 38.8318 64.5944 39.6717C63.2475 40.4751 61.0675 40.8768 58.0545 40.8768ZM54.4921 25.6491C54.8111 26.1604 55.2364 26.5438 55.7682 26.7994C56.3353 27.0185 56.9556 27.1281 57.6291 27.1281C58.4089 27.1281 59.0824 26.9455 59.6496 26.5803C60.2522 26.2151 60.5535 25.7404 60.5535 25.1561C60.5535 24.4988 60.2876 23.9328 59.7559 23.4581C59.2597 22.9834 58.533 22.746 57.5759 22.746C56.6189 22.746 55.8568 23.0564 55.2896 23.6772C54.7579 24.2615 54.4921 24.9188 54.4921 25.6491Z" stroke="black" stroke-width="2" mask="url(#path-1-outside-1_31_189)"/>
<path d="M88.6931 40.8768C87.0625 40.8768 85.946 40.3108 85.3434 39.1787C84.7408 38.0467 84.4395 36.3121 84.4395 33.975C84.4395 32.2587 84.4217 31.0354 84.3863 30.3051C84.3509 29.5382 84.2091 28.8992 83.9609 28.3879C83.7483 27.8767 83.3583 27.621 82.7912 27.621C82.1177 27.621 81.6214 27.8584 81.3024 28.3331C80.9834 28.7713 80.7884 29.3556 80.7175 30.086C80.6821 30.7798 80.6644 31.8388 80.6644 33.263C80.6644 35.0158 80.5935 36.4034 80.4517 37.4259C80.3099 38.4119 79.9377 39.2335 79.3351 39.8908C78.7325 40.5116 77.7932 40.822 76.5171 40.822C72.6888 40.822 70.7747 35.8192 70.7747 25.8134C70.7747 22.4173 71.0583 19.7881 71.6254 17.9257C72.228 16.0268 73.3446 14.84 74.9751 14.3653C75.5777 14.1827 76.1272 14.0914 76.6234 14.0914C77.3678 14.0914 78.0413 14.2557 78.6439 14.5844C79.2465 14.9131 79.6719 15.3695 79.92 15.9538C80.4162 15.6617 80.9125 15.4426 81.4088 15.2965C81.905 15.1504 82.614 15.0774 83.5356 15.0774C84.6699 15.0774 85.7333 15.3695 86.7258 15.9538C87.7538 16.5016 88.4804 17.2867 88.9058 18.3092C89.8274 17.2136 90.749 16.4103 91.6706 15.899C92.6277 15.3513 93.8506 15.0774 95.3394 15.0774C97.5371 15.0774 99.4513 15.753 101.082 17.1041C102.748 18.4187 104.024 20.2446 104.91 22.5817C105.832 24.8823 106.293 27.4385 106.293 30.2503C106.293 33.3908 105.885 35.947 105.07 37.9189C104.254 39.8908 102.836 40.8768 100.816 40.8768C99.469 40.8768 98.4942 40.5299 97.8916 39.8361C97.3244 39.1422 96.97 38.2841 96.8282 37.2616C96.7218 36.2026 96.6687 34.6689 96.6687 32.6604C96.6687 30.9076 96.5446 29.6295 96.2965 28.8261C96.0484 28.0227 95.4635 27.621 94.5419 27.621C93.8684 27.621 93.443 28.0045 93.2658 28.7713C93.0885 29.5017 92.9999 30.725 92.9999 32.4413C92.9645 32.77 92.9467 33.2812 92.9467 33.975C92.8758 36.3121 92.5391 38.0467 91.9365 39.1787C91.3339 40.3108 90.2528 40.8768 88.6931 40.8768Z" stroke="black" stroke-width="2" mask="url(#path-1-outside-1_31_189)"/>
<path d="M122.589 40.8768C116.138 40.8768 111.973 38.8501 110.094 34.7967C108.251 30.7068 107.329 26.562 107.329 22.3626C107.329 19.2586 107.595 16.1912 108.127 13.1602C108.694 10.1293 109.598 7.59136 110.839 5.54639C112.079 3.50143 113.692 2.47895 115.677 2.47895C116.918 2.47895 117.981 2.88064 118.867 3.68402C119.754 4.4874 120.197 5.65595 120.197 7.18967C120.197 7.95653 120.126 8.72339 119.984 9.49025C119.842 10.2571 119.629 11.2066 119.346 12.3386C119.275 12.5577 119.133 13.1055 118.92 13.9819C118.743 14.8583 118.619 15.6799 118.548 16.4468C120.108 15.5704 121.88 15.1322 123.865 15.1322C125.85 15.1322 127.694 15.5886 129.395 16.5016C131.132 17.4145 132.532 18.8204 133.596 20.7193C134.694 22.5817 135.244 24.864 135.244 27.5663C135.244 29.8669 134.73 32.0396 133.702 34.0846C132.674 36.093 131.185 37.7363 129.236 39.0144C127.321 40.256 125.106 40.8768 122.589 40.8768ZM122.27 32.2222C123.227 32.2222 124.06 31.857 124.769 31.1267C125.514 30.3598 125.886 29.4652 125.886 28.4427C125.886 27.4202 125.514 26.5255 124.769 25.7587C124.06 24.9918 123.227 24.6084 122.27 24.6084C121.313 24.6084 120.48 24.9918 119.771 25.7587C119.062 26.5255 118.708 27.4202 118.708 28.4427C118.708 29.4652 119.062 30.3598 119.771 31.1267C120.48 31.857 121.313 32.2222 122.27 32.2222Z" stroke="black" stroke-width="2" mask="url(#path-1-outside-1_31_189)"/>
<path d="M143.083 40.8768C140.814 40.8768 139.29 39.5074 138.51 36.7686C137.766 34.0298 137.393 30.2503 137.393 25.43C137.393 23.239 137.482 21.4131 137.659 19.9524C137.872 18.4552 138.351 17.1954 139.095 16.1729C139.875 15.1139 141.062 14.5844 142.657 14.5844C143.65 14.5844 144.518 14.8218 145.263 15.2965C146.043 15.7712 146.539 16.4468 146.751 17.3232C147.531 16.5929 148.542 16.0451 149.782 15.6799C151.023 15.3147 152.352 15.1322 153.77 15.1322C154.904 15.1322 156.056 15.4243 157.226 16.0086C158.431 16.5928 159.424 17.3962 160.204 18.4187C161.019 19.4047 161.427 20.4819 161.427 21.6505C161.427 22.819 161.019 23.8598 160.204 24.7727C159.424 25.6491 158.378 26.0873 157.067 26.0873C156.641 26.0873 156.234 26.0325 155.844 25.923C155.489 25.8134 155.17 25.7039 154.887 25.5943C154.178 25.3022 153.61 25.1561 153.185 25.1561C151.803 25.1561 150.58 25.7222 149.516 26.8542C148.488 27.9497 147.974 29.3739 147.974 31.1267C147.974 33.0621 147.904 34.6689 147.762 35.947C147.62 37.2251 147.195 38.3754 146.486 39.3978C145.777 40.3838 144.642 40.8768 143.083 40.8768Z" stroke="black" stroke-width="2" mask="url(#path-1-outside-1_31_189)"/>
<path d="M172.044 40.8768C169.279 40.8768 167.01 40.2377 165.238 38.9596C163.465 37.645 162.579 35.7644 162.579 33.3177C162.579 31.1997 163.483 29.5199 165.291 28.2784C167.099 27.0368 169.35 26.416 172.044 26.416C173.036 26.416 173.958 26.5073 174.808 26.6899C175.695 26.8359 176.297 27.0185 176.616 27.2376C176.616 26.3247 176.244 25.5761 175.5 24.9918C174.755 24.371 173.621 24.0606 172.097 24.0606C171.423 24.0606 170.874 24.1154 170.448 24.2249C170.023 24.3345 169.562 24.4988 169.066 24.7179C168.57 24.937 168.109 25.1014 167.684 25.2109C167.294 25.3205 166.762 25.3752 166.088 25.3752C164.954 25.3752 164.068 25.0831 163.43 24.4988C162.792 23.878 162.473 22.9468 162.473 21.7053C162.473 20.2811 162.969 19.076 163.962 18.0901C164.99 17.1041 166.266 16.3737 167.79 15.899C169.314 15.3878 170.838 15.1322 172.363 15.1322C175.376 15.1322 177.892 15.7164 179.913 16.885C181.969 18.017 183.475 19.5325 184.432 21.4314C185.425 23.3303 185.921 25.43 185.921 27.7306C185.921 28.9722 185.815 30.1225 185.602 31.1815C185.425 32.2405 185.177 33.0621 184.858 33.6464C185.354 34.0846 185.726 34.5958 185.974 35.1801C186.258 35.7644 186.4 36.3669 186.4 36.9877C186.4 38.0467 186.045 38.9596 185.336 39.7265C184.663 40.4934 183.759 40.8768 182.624 40.8768C181.774 40.8768 181.083 40.749 180.551 40.4934C180.019 40.2377 179.452 39.8361 178.849 39.2883C177.963 39.8361 176.988 40.2377 175.925 40.4934C174.897 40.749 173.603 40.8768 172.044 40.8768ZM173.107 35.3444C173.851 35.3444 174.436 35.1801 174.862 34.8515C175.322 34.5228 175.553 34.1211 175.553 33.6464C175.553 33.1717 175.322 32.77 174.862 32.4413C174.436 32.1127 173.851 31.9483 173.107 31.9483C172.363 31.9483 171.76 32.1127 171.299 32.4413C170.874 32.77 170.661 33.1717 170.661 33.6464C170.661 34.1211 170.874 34.5228 171.299 34.8515C171.76 35.1801 172.363 35.3444 173.107 35.3444Z" stroke="black" stroke-width="2" mask="url(#path-1-outside-1_31_189)"/>
<path d="M195.279 14.3105C193.542 14.3105 192.071 13.6715 190.866 12.3934C189.661 11.0787 189.058 9.49025 189.058 7.62787C189.058 5.80201 189.661 4.25003 190.866 2.97193C192.071 1.65731 193.542 1 195.279 1C196.981 1 198.434 1.65731 199.639 2.97193C200.88 4.25003 201.5 5.80201 201.5 7.62787C201.5 9.49025 200.88 11.0787 199.639 12.3934C198.434 13.6715 196.981 14.3105 195.279 14.3105ZM195.279 40.8768C193.826 40.8768 192.745 40.4568 192.036 39.617C191.362 38.7405 190.901 37.4442 190.653 35.7279C190.441 33.975 190.334 31.4919 190.334 28.2784C190.334 25.5761 190.458 23.4398 190.706 21.8696C190.99 20.2993 191.486 19.1308 192.195 18.3639C192.904 17.5971 193.932 17.2136 195.279 17.2136C196.732 17.2136 197.796 17.6518 198.469 18.5283C199.178 19.3682 199.639 20.6645 199.852 22.4173C200.1 24.1337 200.224 26.5986 200.224 29.8121C200.224 32.5144 200.082 34.6506 199.799 36.2209C199.55 37.7911 199.072 38.9596 198.363 39.7265C197.654 40.4934 196.626 40.8768 195.279 40.8768Z" stroke="black" stroke-width="2" mask="url(#path-1-outside-1_31_189)"/>
</svg>
